<svg width="18" height="18" viewBox="0 0 18 18" fill="none" xmlns="http://www.w3.org/2000/svg">
<path fill-rule="evenodd" clip-rule="evenodd" d="M10.2085 1.87499C10.2085 1.50681 10.507 1.20833 10.8752 1.20833H13.8752C14.4498 1.20833 15.0009 1.4366 15.4072 1.84293C15.8136 2.24926 16.0418 2.80036 16.0418 3.37499V13.875C16.0418 14.4496 15.8136 15.0007 15.4072 15.4071C15.0009 15.8134 14.4498 16.0417 13.8752 16.0417H10.8752C10.507 16.0417 10.2085 15.7432 10.2085 15.375C10.2085 15.0068 10.507 14.7083 10.8752 14.7083H13.8752C14.0962 14.7083 14.3081 14.6205 14.4644 14.4643C14.6207 14.308 14.7085 14.096 14.7085 13.875V3.37499C14.7085 3.15398 14.6207 2.94202 14.4644 2.78574C14.3081 2.62946 14.0962 2.54166 13.8752 2.54166H10.8752C10.507 2.54166 10.2085 2.24318 10.2085 1.87499ZM6.65371 4.40359C6.91406 4.14324 7.33617 4.14324 7.59652 4.40359L11.342 8.14903C11.4653 8.27001 11.5418 8.43857 11.5418 8.625C11.5418 8.81143 11.4653 8.97999 11.3419 9.10098L7.59652 12.8464C7.33617 13.1067 6.91406 13.1067 6.65371 12.8464C6.39336 12.5861 6.39336 12.1639 6.65371 11.9036L9.26564 9.29166H1.87516C1.50697 9.29166 1.2085 8.99319 1.2085 8.625C1.2085 8.25681 1.50697 7.95833 1.87516 7.95833H9.26564L6.65371 5.3464C6.39336 5.08605 6.39336 4.66394 6.65371 4.40359Z" fill="#2D3440"/>
</svg>
