<svg width="24" height="24" viewBox="0 0 24 24" fill="none" xmlns="http://www.w3.org/2000/svg">
<g opacity="0.4" filter="url(#filter0_d_576_2253)">
<path fill-rule="evenodd" clip-rule="evenodd" d="M12.0019 1.33333C12.0012 1.33334 12.0004 1.33334 11.9996 1.33334C8.31791 1.33334 5.33333 4.31792 5.33333 7.99958C5.33333 11.6806 8.31686 14.6648 11.9976 14.6658C11.9984 14.6658 11.9992 14.6658 12 14.6658C15.6817 14.6658 18.6662 11.6812 18.6662 7.99957C18.6662 4.31856 15.6827 1.33439 12.0019 1.33333ZM12.0019 15.9991C12.0012 15.9991 12.0004 15.9992 11.9996 15.9992C7.58153 15.9992 4 12.4176 4 7.99958C4 3.58251 7.57996 0.00158592 11.9967 8.18445e-06C11.9978 2.73026e-06 11.9989 0 12 0C16.418 0 19.9996 3.58153 19.9996 7.99957C19.9996 12.417 16.4191 15.9981 12.0019 15.9991Z" fill="#2D3440"/>
</g>
<defs>
<filter id="filter0_d_576_2253" x="0" y="0" width="24" height="24" filterUnits="userSpaceOnUse" color-interpolation-filters="sRGB">
<feFlood flood-opacity="0" result="BackgroundImageFix"/>
<feColorMatrix in="SourceAlpha" type="matrix" values="0 0 0 0 0 0 0 0 0 0 0 0 0 0 0 0 0 0 127 0" result="hardAlpha"/>
<feOffset dy="4"/>
<feGaussianBlur stdDeviation="2"/>
<feComposite in2="hardAlpha" operator="out"/>
<feColorMatrix type="matrix" values="0 0 0 0 0 0 0 0 0 0 0 0 0 0 0 0 0 0 0.25 0"/>
<feBlend mode="normal" in2="BackgroundImageFix" result="effect1_dropShadow_576_2253"/>
<feBlend mode="normal" in="SourceGraphic" in2="effect1_dropShadow_576_2253" result="shape"/>
</filter>
</defs>
</svg>
